<svg width="137" height="35" viewBox="0 0 137 35" fill="none" xmlns="http://www.w3.org/2000/svg">
<path fill-rule="evenodd" clip-rule="evenodd" d="M40.4947 4.12603C40.4947 5.10429 40.2271 5.88689 39.6797 6.47385C39.0714 7.16515 38.2564 7.51732 37.271 7.51732C36.3221 7.51732 35.507 7.16515 34.8379 6.4608C34.5164 6.12104 34.2631 5.71434 34.0937 5.26571C33.9242 4.81708 33.8422 4.33601 33.8526 3.85212C33.8526 2.80864 34.181 1.92169 34.8501 1.21734C35.507 0.513 36.3099 0.160829 37.271 0.160829C37.7332 0.160829 38.1834 0.265175 38.6091 0.460827C39.0471 0.656478 39.3877 0.917347 39.6432 1.24343L39.0592 1.85647C38.8398 1.58093 38.5647 1.36257 38.2549 1.21793C37.9451 1.0733 37.6086 1.00619 37.271 1.02169C36.5776 1.02169 35.9815 1.28256 35.4705 1.8043C34.9718 2.32604 34.7163 3.00429 34.7163 3.83907C34.7163 4.67385 34.9596 5.35211 35.4705 5.87385C35.9815 6.39558 36.5654 6.65645 37.271 6.65645C38.0009 6.65645 38.6091 6.39558 39.0957 5.87385C39.412 5.52168 39.6067 5.05211 39.6553 4.43907H37.271V3.59125H40.4461C40.4826 3.77386 40.4947 3.95646 40.4947 4.11298" fill="white"/>
<path fill-rule="evenodd" clip-rule="evenodd" d="M40.4945 4.12602H40.385C40.385 5.09123 40.1174 5.82166 39.6065 6.39557C38.9982 7.06079 38.2318 7.39992 37.2708 7.39992C36.3462 7.39992 35.5676 7.06079 34.9229 6.38253C34.6074 6.0528 34.3592 5.65655 34.1938 5.21877C34.0284 4.781 33.9494 4.31121 33.9618 3.83906C33.9618 2.82168 34.2781 1.9869 34.935 1.2956C35.2394 0.964627 35.6035 0.703698 36.0051 0.528767C36.4067 0.353835 36.8374 0.268578 37.2708 0.278209C37.7209 0.278209 38.1588 0.369512 38.5724 0.565164C38.986 0.760815 39.3023 1.00864 39.5578 1.32168L39.643 1.24342L39.5578 1.16516L38.986 1.7782L39.059 1.85646L39.1442 1.79125C38.6941 1.20429 38.0493 0.904293 37.2708 0.904293C36.5408 0.904293 35.9204 1.1782 35.3973 1.72603C34.8742 2.26081 34.6066 2.9782 34.6066 3.83906C34.6066 4.69993 34.8742 5.40427 35.3973 5.9521C35.9204 6.49992 36.553 6.77383 37.2708 6.77383C38.025 6.77383 38.6697 6.49992 39.1807 5.9521C39.5213 5.58688 39.716 5.07819 39.7646 4.4521V4.32167H37.3924V3.70863H40.458V3.59124L40.3485 3.61732C40.385 3.78689 40.3972 3.95645 40.3972 4.12602H40.6162C40.6162 3.94341 40.604 3.7608 40.5675 3.57819L40.5553 3.47385H37.1491V4.55645H39.643V4.43906H39.5213C39.4848 5.02601 39.3023 5.46949 39.0104 5.78253C38.5359 6.29122 37.9642 6.53905 37.2586 6.53905C36.5895 6.53905 36.0177 6.27818 35.5311 5.78253C35.0445 5.28688 34.8012 4.64775 34.8012 3.83906C34.8012 3.03037 35.0445 2.40429 35.5311 1.88255C36.0177 1.3869 36.5895 1.13907 37.2586 1.13907C37.9885 1.13907 38.5481 1.39994 38.9617 1.93472L39.0469 2.03907L39.7038 1.32168L39.7768 1.25647L39.7159 1.16516C39.4245 0.80459 39.0577 0.523017 38.6454 0.343426C38.2106 0.145426 37.7431 0.0433965 37.2708 0.0434275C36.2975 0.0434275 35.446 0.408643 34.7769 1.13907C34.4422 1.4872 34.1777 1.90531 33.9998 2.3675C33.822 2.82969 33.7345 3.32611 33.7429 3.82602C33.7429 4.89558 34.0835 5.80862 34.7769 6.53905C35.1022 6.8916 35.4911 7.16942 35.9199 7.35554C36.3487 7.54167 36.8083 7.63222 37.2708 7.62165C38.2805 7.62165 39.1199 7.25644 39.7524 6.53905L39.6795 6.46079L39.7524 6.55209C40.3242 5.93905 40.604 5.11732 40.604 4.11297H40.4945V4.12602ZM45.5431 1.1782H42.5504V3.42167H45.2511V4.25645H42.5504V6.49992H45.5431V7.36079H41.711V0.317339H45.5431V1.1782Z" fill="white"/>
<path fill-rule="evenodd" clip-rule="evenodd" d="M45.5431 1.17826V1.06086H42.441V3.53911H45.1417V4.13911H42.441V6.61736H45.4336V7.24344H41.8206V0.434781H45.4336V1.17826H45.5431V1.06086V1.1913H45.6526V0.199999H41.6016V7.47822H45.6526V6.38258H42.66V4.37389H45.3607V3.30433H42.66V1.29565H45.6526V1.17826H45.531H45.5431ZM49.0954 7.36083H48.256V1.17826H46.4312V0.31739H50.9323V1.17826H49.1075V7.36083" fill="white"/>
<path fill-rule="evenodd" clip-rule="evenodd" d="M49.0955 7.36083V7.24344H48.3656V1.06086H46.5408V0.434781H50.823V1.06086H48.9982V7.36083H49.0955V7.24344V7.37388H49.2172V1.29565H51.0419V0.199999H46.3097V1.29565H48.1466V7.47822H49.205V7.36083H49.0955ZM54.2049 7.36083H55.0564V0.31739H54.2049V7.36083Z" fill="white"/>
<path fill-rule="evenodd" clip-rule="evenodd" d="M54.2047 7.36083H54.3142V0.447824H54.9346V7.24344H54.2047V7.37388H54.3142H54.1926V7.47822H55.1658V0.199999H54.0952V7.47822H54.2047V7.36083ZM58.791 7.36083H57.9394V1.17826H56.1147V0.31739H60.6158V1.17826H58.791V7.36083Z" fill="white"/>
<path fill-rule="evenodd" clip-rule="evenodd" d="M58.7908 7.3609V7.24351H58.0609V1.06093H56.2239V0.434841H60.5061V1.06093H58.6813V7.3609H58.7908V7.24351V7.37394H58.9003V1.29571H60.725V0.200059H56.0049V1.29571H57.8297V7.47829H58.9003V7.3609H58.7786H58.7908ZM64.9707 5.8609C65.4573 6.38264 66.0655 6.64351 66.7589 6.64351C67.4645 6.64351 68.0606 6.38264 68.5472 5.8609C69.0338 5.33917 69.2771 4.66091 69.2771 3.83917C69.2771 3.01744 69.0338 2.35222 68.5472 1.81744C68.0606 1.29571 67.4645 1.03484 66.7589 1.03484C66.0534 1.03484 65.4573 1.29571 64.9707 1.81744C64.4841 2.33918 64.2408 3.01744 64.2408 3.83917C64.2408 4.66091 64.4841 5.33917 64.9707 5.8609ZM69.1677 6.44786C68.5229 7.16525 67.72 7.51742 66.7589 7.51742C65.7979 7.51742 64.995 7.16525 64.3502 6.44786C64.0332 6.10519 63.7837 5.69767 63.6165 5.24952C63.4493 4.80137 63.3679 4.32175 63.377 3.83917C63.3673 3.35767 63.4477 2.87896 63.6136 2.43138C63.7794 1.9838 64.0274 1.57647 64.3427 1.23349C64.6581 0.890506 65.0344 0.618858 65.4495 0.434626C65.8645 0.250394 66.3098 0.157325 66.7589 0.160929C67.2081 0.157325 67.6534 0.250394 68.0684 0.434626C68.4835 0.618858 68.8598 0.890506 69.1751 1.23349C69.4905 1.57647 69.7384 1.9838 69.9043 2.43138C70.0702 2.87896 70.1506 3.35767 70.1409 3.83917C70.1409 4.8696 69.8124 5.74351 69.1677 6.44786Z" fill="white"/>
<path fill-rule="evenodd" clip-rule="evenodd" d="M64.9708 5.86079L64.8978 5.93905C65.4088 6.48687 66.0292 6.77383 66.7591 6.77383C67.489 6.77383 68.1216 6.48687 68.6204 5.93905C69.1313 5.39122 69.3868 4.68688 69.3868 3.8521C69.3868 2.99123 69.1313 2.28689 68.6204 1.73907C68.3805 1.46986 68.0914 1.25674 67.7711 1.11308C67.4508 0.969424 67.1062 0.898338 66.7591 0.904287C66.0292 0.904287 65.4088 1.19124 64.8978 1.73907C64.6444 2.01547 64.4459 2.34404 64.3142 2.70496C64.1824 3.06588 64.1203 3.45167 64.1314 3.83906C64.1314 4.68688 64.3869 5.40427 64.8978 5.93905L65.056 5.78253C64.8212 5.52712 64.6375 5.22301 64.5162 4.88883C64.3949 4.55465 64.3385 4.19743 64.3504 3.83906C64.3504 3.05645 64.5937 2.40428 65.056 1.89559C65.2763 1.65095 65.5411 1.45755 65.8341 1.3274C66.1271 1.19725 66.442 1.13314 66.7591 1.13907C67.4403 1.13907 67.9999 1.39994 68.4622 1.89559C68.9367 2.41732 69.1678 3.04341 69.1678 3.8521C69.1678 4.63471 68.9245 5.27383 68.4622 5.78253C67.9999 6.29122 67.4403 6.53904 66.7591 6.53904C66.442 6.54497 66.1271 6.48087 65.8341 6.35072C65.5411 6.22057 65.2763 6.02716 65.056 5.78253L64.9708 5.86079ZM69.1678 6.44774L69.0948 6.36948C68.4622 7.06078 67.6958 7.39991 66.7591 7.41295C66.3253 7.41481 65.8956 7.32349 65.4952 7.14438C65.0949 6.96527 64.7321 6.70199 64.4282 6.37009C64.1243 6.03819 63.8855 5.64439 63.7259 5.21192C63.5663 4.77945 63.4891 4.31708 63.4988 3.8521C63.4874 3.38603 63.5634 2.92226 63.7223 2.48827C63.8812 2.05428 64.1197 1.65891 64.4238 1.32561C64.7278 0.992311 65.0912 0.727862 65.4924 0.547942C65.8935 0.368023 66.3243 0.276297 66.7591 0.278204C67.6958 0.278204 68.4622 0.617332 69.0826 1.32168C69.7152 2.01298 70.0315 2.84776 70.0315 3.83906C70.0315 4.8434 69.7152 5.67818 69.0948 6.36948L69.253 6.53904C69.9099 5.80861 70.2505 4.89557 70.2505 3.83906C70.2603 3.34213 70.177 2.84816 70.0056 2.38634C69.8342 1.92453 69.5782 1.50425 69.2527 1.15037C68.9272 0.796493 68.5388 0.516199 68.1105 0.326066C67.6822 0.135933 67.2226 0.0398235 66.7591 0.0434219C66.2966 0.0415718 65.8384 0.138971 65.4115 0.329885C64.9846 0.520798 64.5976 0.801366 64.2734 1.15507C63.9492 1.50877 63.6943 1.92845 63.5236 2.38939C63.353 2.85034 63.2701 3.34324 63.2799 3.83906C63.2799 4.89557 63.6083 5.79557 64.2774 6.53904C64.9343 7.26948 65.7737 7.63469 66.7591 7.63469C67.7445 7.63469 68.5839 7.26948 69.253 6.53904L69.1678 6.44774ZM71.3332 7.36078V0.317334H72.3551L75.5423 5.79557H75.5788L75.5423 4.43905V0.317334H76.3939V7.36078H75.5058L72.1604 1.62168H72.1239L72.1604 2.97819V7.36078H71.321" fill="white"/>
<path fill-rule="evenodd" clip-rule="evenodd" d="M71.333 7.36083H71.4304V0.447824H72.2819L75.4814 5.92606H75.6882L75.6517 4.43911V0.434781H76.2721V7.24344H75.5665L72.2211 1.50434H72.0143L72.0508 2.97825V7.24344H71.3209V7.37388H71.4425H71.3209V7.47822H72.2698V2.97825L72.2333 1.60869H72.1238V1.73912H72.1603V1.60869L72.0751 1.67391L75.4449 7.47822H76.4911V0.199999H75.4327V4.43911L75.4692 5.79562H75.5787V5.67823H75.5422V5.80867L75.6395 5.73041L72.4157 0.199999H71.2114V7.47822H71.333V7.36083Z" fill="white"/>
<path fill-rule="evenodd" clip-rule="evenodd" d="M1.82145 29.7432L1.96744 29.7823C1.91806 29.7726 1.86931 29.7595 1.82145 29.7432ZM22.6239 14.8737C23.1713 15.1998 23.5119 15.6302 23.6214 16.0737L23.6457 16.2433C23.5971 16.7389 23.2443 17.2346 22.6117 17.6128L3.39076 29.3128C3.00147 29.5606 2.62435 29.665 2.29589 29.665C1.95527 29.665 1.66331 29.5476 1.42 29.3258L1.34701 29.2476C1.02816 28.8352 0.867278 28.3084 0.896903 27.7737V4.7129C0.896903 4.00855 1.09155 3.47377 1.42 3.14769C1.66331 2.92595 1.95527 2.80856 2.29589 2.80856C2.62435 2.80856 3.00147 2.92595 3.39076 3.16073L22.6117 14.8737H22.6239ZM2.28373 2.65204H2.45404H2.28373ZM113.96 29.2084H116.222V12.9042H113.96V29.2084ZM134.397 18.7737L131.794 25.8432H131.721L129.02 18.7737H126.575L130.626 28.6606L128.315 34.1519H130.687L136.928 18.7737H134.397ZM121.526 27.3563C120.784 27.3563 119.75 26.965 119.75 25.9737C119.75 24.7085 121.04 24.2259 122.147 24.2259C123.157 24.2259 123.619 24.4606 124.227 24.7737C124.145 25.4817 123.826 26.1336 123.329 26.6085C122.832 27.0835 122.192 27.3491 121.526 27.3563ZM121.806 18.4215C120.152 18.4215 118.461 19.2041 117.755 20.9128L119.763 21.8259C120.2 20.9128 121.003 20.6259 121.831 20.6259C123.011 20.6259 124.203 21.3693 124.227 22.7128V22.8824C123.496 22.4676 122.682 22.2525 121.855 22.2563C119.69 22.2563 117.475 23.5346 117.475 25.9215C117.475 28.1128 119.264 29.5215 121.247 29.5215C122.779 29.5215 123.619 28.778 124.154 27.9171H124.227V29.1824H126.417V22.9215C126.417 20.0389 124.397 18.4215 121.794 18.4215H121.806ZM107.768 20.7693H104.544V15.1607H107.768C109.471 15.1607 110.444 16.6737 110.444 17.965C110.444 19.2302 109.471 20.7563 107.768 20.7563V20.7693ZM107.719 12.9042H102.269V29.2084H104.544V23.0259H107.707C110.225 23.0259 112.695 21.0693 112.695 17.965C112.695 14.8607 110.225 12.9042 107.707 12.9042H107.719ZM78.0482 27.3563C76.4911 27.3563 75.1773 25.9476 75.1773 24.0172C75.1773 22.0606 76.4911 20.6259 78.0482 20.6259C79.6054 20.6259 80.8219 22.0606 80.8219 24.0172C80.8219 25.9476 79.6054 27.3563 78.0482 27.3563ZM80.6638 19.6867H80.5786C80.2327 19.2843 79.8107 18.9656 79.3408 18.7519C78.8709 18.5382 78.3639 18.4345 77.8536 18.4476C76.5144 18.5019 75.2478 19.1142 74.3231 20.1543C73.3985 21.1945 72.8888 22.5803 72.9024 24.0172C72.8921 25.4492 73.4041 26.8289 74.329 27.862C75.2539 28.8951 76.5187 29.5 77.8536 29.5476C78.3663 29.5617 78.8757 29.4559 79.3463 29.2373C79.8169 29.0188 80.2375 28.6929 80.5786 28.2824H80.6638V29.078C80.6638 31.2041 79.6054 32.3389 77.9023 32.3389C77.3329 32.3272 76.7798 32.1335 76.3138 31.7826C75.8478 31.4317 75.4902 30.9396 75.2868 30.3693L73.316 31.2432C73.6874 32.2192 74.3226 33.0537 75.1399 33.6394C75.9572 34.2252 76.9192 34.5354 77.9023 34.5302C80.5664 34.5302 82.817 32.8345 82.817 28.7519V18.7867H80.6638V19.6998V19.6867ZM84.3863 29.2084H86.6612V12.9042H84.3863V29.2084ZM90.0066 23.8215C89.9819 23.4181 90.0326 23.0134 90.1556 22.6312C90.2787 22.249 90.4716 21.897 90.7231 21.5958C90.9746 21.2945 91.2796 21.0501 91.6203 20.8769C91.961 20.7036 92.3306 20.605 92.7073 20.5867C93.6196 20.5867 94.386 21.0693 94.6293 21.7606L90.0066 23.8345V23.8215ZM97.0624 21.9824C96.6366 20.7433 95.3228 18.4607 92.6343 18.4607C89.9701 18.4607 87.756 20.6911 87.756 23.9911C87.756 27.1084 89.9458 29.5476 92.8897 29.5476C95.2619 29.5476 96.6366 27.9824 97.2084 27.0824L95.4444 25.8302C95.1786 26.3003 94.8033 26.6881 94.3554 26.9557C93.9075 27.2232 93.4024 27.3613 92.8897 27.3563C91.734 27.3563 90.9068 26.7954 90.3837 25.6737L97.3057 22.6085L97.0624 21.9824ZM41.9543 20.1563V22.5041H47.1974C47.1218 23.6067 46.7018 24.6498 46.0053 25.465C45.4781 26.0409 44.844 26.4917 44.1441 26.7883C43.4442 27.0848 42.694 27.2206 41.9421 27.1867C41.1797 27.1851 40.4252 27.0213 39.7222 26.7049C39.0192 26.3886 38.3817 25.9259 37.8466 25.3437C37.3115 24.7614 36.8893 24.0712 36.6046 23.3129C36.32 22.5546 36.1783 21.7432 36.188 20.9259C36.1737 19.7122 36.4929 18.5208 37.1058 17.5003C37.7187 16.4798 38.5982 15.6753 39.6346 15.1872C40.6711 14.699 41.8186 14.5487 42.9342 14.7551C44.0497 14.9614 45.084 15.5153 45.9079 16.3476L47.4529 14.6911C46.7279 13.9222 45.867 13.3162 44.9207 12.9086C43.9744 12.5009 42.9618 12.2999 41.9421 12.3172C39.8013 12.317 37.7464 13.2198 36.2213 14.8305C34.6962 16.4413 33.8234 18.6308 33.7915 20.9259C33.8234 23.2209 34.6962 25.4104 36.2213 27.0212C37.7464 28.632 39.8013 29.5348 41.9421 29.5345C44.3386 29.5345 46.1391 28.6997 47.5502 27.1215C48.8292 25.623 49.5104 23.6473 49.448 21.6172C49.448 21.0693 49.4115 20.5737 49.3263 20.1563H41.9421H41.9543ZM55.4211 27.3563C53.8518 27.3563 52.5014 25.9737 52.5014 23.9911C52.5014 21.9954 53.8518 20.6389 55.4211 20.6389C57.0026 20.6389 58.3407 21.9954 58.3407 23.9911C58.3407 25.9737 57.0026 27.3563 55.4211 27.3563ZM55.4211 18.4476C54.7378 18.4354 54.0592 18.5702 53.4254 18.8441C52.7916 19.118 52.2155 19.5254 51.7312 20.0423C51.2468 20.5592 50.8641 21.175 50.6057 21.8532C50.3473 22.5315 50.2183 23.2584 50.2266 23.9911C50.2167 24.7248 50.3444 25.4532 50.6021 26.1329C50.8598 26.8127 51.2423 27.4301 51.7268 27.9483C52.2113 28.4666 52.7879 28.8752 53.4226 29.1499C54.0572 29.4247 54.7368 29.5599 55.4211 29.5476C56.1054 29.5599 56.785 29.4247 57.4196 29.1499C58.0542 28.8752 58.6309 28.4666 59.1154 27.9483C59.5999 27.4301 59.9823 26.8127 60.2401 26.1329C60.4978 25.4532 60.6255 24.7248 60.6156 23.9911C60.6238 23.2584 60.4949 22.5315 60.2365 21.8532C59.978 21.175 59.5953 20.5592 59.111 20.0423C58.6266 19.5254 58.0505 19.118 57.4167 18.8441C56.7829 18.5702 56.1043 18.4354 55.4211 18.4476ZM66.759 27.3563C65.1775 27.3563 63.8394 25.9737 63.8394 23.9911C63.8394 21.9954 65.1775 20.6389 66.759 20.6389C68.3161 20.6389 69.6786 21.9954 69.6786 23.9911C69.6786 25.9737 68.3161 27.3563 66.759 27.3563ZM66.759 18.4476C66.0757 18.4354 65.3971 18.5702 64.7633 18.8441C64.1295 19.118 63.5534 19.5254 63.0691 20.0423C62.5848 20.5592 62.2021 21.175 61.9436 21.8532C61.6852 22.5315 61.5563 23.2584 61.5645 23.9911C61.5546 24.7248 61.6823 25.4532 61.94 26.1329C62.1977 26.8127 62.5802 27.4301 63.0647 27.9483C63.5492 28.4666 64.1259 28.8752 64.7605 29.1499C65.3951 29.4247 66.0747 29.5599 66.759 29.5476C67.4433 29.5599 68.1229 29.4247 68.7575 29.1499C69.3921 28.8752 69.9688 28.4666 70.4533 27.9483C70.9378 27.4301 71.3203 26.8127 71.578 26.1329C71.8357 25.4532 71.9634 24.7248 71.9535 23.9911C71.9617 23.2584 71.8328 22.5315 71.5744 21.8532C71.3159 21.175 70.9332 20.5592 70.4489 20.0423C69.9646 19.5254 69.3885 19.118 68.7547 18.8441C68.1209 18.5702 67.4422 18.4354 66.759 18.4476Z" fill="white"/>
</svg>
