<svg width="128" height="34" viewBox="0 0 128 34" fill="none" xmlns="http://www.w3.org/2000/svg">
<path d="M40.4167 1.64765C40.8905 1.61264 41.3657 1.69074 41.8079 1.87631C42.2502 2.06188 42.6486 2.35032 42.9744 2.72083C43.3002 3.09135 43.5453 3.53472 43.692 4.01902C43.8387 4.50332 43.8835 5.01648 43.823 5.52154C43.823 7.99979 42.57 9.43457 40.4167 9.43457H37.7891V1.64765H40.4167ZM38.9204 8.32588H40.2829C40.6209 8.34683 40.959 8.28707 41.2728 8.15093C41.5866 8.01479 41.8683 7.80565 42.0976 7.5386C42.3268 7.27156 42.498 6.95328 42.5986 6.60672C42.6992 6.26017 42.7268 5.89398 42.6795 5.53459C42.7268 5.1752 42.6992 4.80901 42.5986 4.46245C42.498 4.1159 42.3268 3.79761 42.0976 3.53057C41.8683 3.26353 41.5866 3.05439 41.2728 2.91825C40.959 2.7821 40.6209 2.72235 40.2829 2.7433H38.9204V8.32588ZM45.1003 6.48676C45.076 6.10678 45.1248 5.7255 45.2437 5.36659C45.3626 5.00769 45.549 4.67883 45.7915 4.40044C46.0339 4.12206 46.3271 3.90009 46.6529 3.74833C46.9788 3.59657 47.3302 3.51826 47.6854 3.51826C48.0406 3.51826 48.3921 3.59657 48.7179 3.74833C49.0437 3.90009 49.3369 4.12206 49.5793 4.40044C49.8218 4.67883 50.0082 5.00769 50.1271 5.36659C50.246 5.7255 50.2948 6.10678 50.2705 6.48676C50.2948 6.86673 50.246 7.24802 50.1271 7.60692C50.0082 7.96583 49.8218 8.29468 49.5793 8.57307C49.3369 8.85145 49.0437 9.07342 48.7179 9.22518C48.3921 9.37694 48.0406 9.45526 47.6854 9.45526C47.3302 9.45526 46.9788 9.37694 46.6529 9.22518C46.3271 9.07342 46.0339 8.85145 45.7915 8.57307C45.549 8.29468 45.3626 7.96583 45.2437 7.60692C45.1248 7.24802 45.076 6.86673 45.1003 6.48676ZM49.1513 6.48676C49.1513 5.22155 48.6282 4.47807 47.6915 4.47807C46.7426 4.47807 46.2195 5.22155 46.2195 6.48676C46.2195 7.77806 46.7426 8.50849 47.6793 8.50849C48.6282 8.50849 49.1513 7.76501 49.1513 6.48676ZM57.1316 9.43457H56.0125L54.8811 5.10416H54.7959L53.6646 9.43457H52.5697L51.0491 3.56503H52.1439L53.1171 8.03892H53.2023L54.3337 3.55199H55.3677L56.4991 8.03892H56.5842L57.5574 3.55199H58.6401L57.1316 9.43457ZM59.9053 3.56503H60.9515V4.49111H61.0367C61.3165 3.79981 61.9734 3.38242 62.6668 3.44764C62.9332 3.4249 63.2009 3.4669 63.45 3.57051C63.6991 3.67411 63.9232 3.83665 64.1056 4.04602C64.2881 4.25538 64.4241 4.50618 64.5035 4.77972C64.583 5.05326 64.6038 5.3425 64.5646 5.62589V9.43457H63.4697V5.91285C63.4697 4.97372 63.1047 4.50416 62.3018 4.50416C62.1204 4.49355 61.9389 4.5254 61.7701 4.5975C61.6012 4.66959 61.449 4.78021 61.324 4.92167C61.199 5.06314 61.1042 5.23206 61.0462 5.41673C60.9882 5.6014 60.9683 5.79739 60.988 5.99111V9.43457H59.9053V3.56503ZM66.292 1.26939H67.3625V9.43457H66.2798L66.292 1.26939ZM68.871 6.48676C68.8467 6.10678 68.8955 5.7255 69.0144 5.36659C69.1333 5.00769 69.3197 4.67883 69.5622 4.40044C69.8046 4.12206 70.0978 3.90009 70.4236 3.74833C70.7495 3.59657 71.1009 3.51826 71.4561 3.51826C71.8113 3.51826 72.1628 3.59657 72.4886 3.74833C72.8144 3.90009 73.1076 4.12206 73.35 4.40044C73.5925 4.67883 73.7789 5.00769 73.8978 5.36659C74.0167 5.7255 74.0655 6.10678 74.0412 6.48676C74.0655 6.86673 74.0167 7.24802 73.8978 7.60692C73.7789 7.96583 73.5925 8.29468 73.35 8.57307C73.1076 8.85145 72.8144 9.07342 72.4886 9.22518C72.1628 9.37694 71.8113 9.45526 71.4561 9.45526C71.1009 9.45526 70.7495 9.37694 70.4236 9.22518C70.0978 9.07342 69.8046 8.85145 69.5622 8.57307C69.3197 8.29468 69.1333 7.96583 69.0144 7.60692C68.8955 7.24802 68.8467 6.86673 68.871 6.48676ZM72.922 6.48676C72.922 5.22155 72.3867 4.47807 71.4622 4.47807C70.5133 4.47807 69.9902 5.22155 69.9902 6.48676C69.9902 7.77806 70.5133 8.50849 71.45 8.50849C72.3867 8.50849 72.922 7.76501 72.922 6.48676ZM75.1726 7.76501C75.1726 6.72154 75.9025 6.1085 77.2163 6.01719L78.7005 5.92589V5.4172C78.7005 4.80416 78.3112 4.45198 77.5691 4.45198C76.9608 4.45198 76.5472 4.68677 76.4377 5.10416H75.3794C75.501 4.08677 76.3769 3.44764 77.6178 3.44764C78.9924 3.44764 79.771 4.17807 79.771 5.4172V9.43457H78.7248V8.59979H78.6396C78.2868 9.21283 77.6664 9.56501 76.9973 9.52587C76.7672 9.55141 76.5347 9.52492 76.3147 9.4481C76.0947 9.37129 75.8922 9.24586 75.7202 9.07993C75.5483 8.91399 75.4107 8.71123 75.3164 8.48474C75.222 8.25825 75.173 8.01306 75.1726 7.76501ZM78.7005 7.26936V6.77371L77.3623 6.86502C76.608 6.91719 76.2674 7.20415 76.2674 7.71284C76.2674 8.23458 76.6932 8.54762 77.2771 8.54762C77.4495 8.56735 77.6237 8.54964 77.7895 8.49554C77.9553 8.44144 78.1092 8.35207 78.2421 8.23275C78.375 8.11343 78.484 7.96663 78.5628 7.8011C78.6415 7.63558 78.6884 7.45473 78.7005 7.26936ZM81.1943 6.48676C81.1943 4.63459 82.0824 3.46068 83.4692 3.46068C84.1626 3.42155 84.8195 3.8259 85.148 4.49111H85.221V1.26939H86.3158V9.43457H85.2696V8.50849H85.1845C84.8317 9.16066 84.1748 9.55196 83.4692 9.52587C82.0702 9.52587 81.1943 8.35197 81.1943 6.48676ZM82.3135 6.48676C82.3135 7.73892 82.8609 8.4824 83.7733 8.4824C84.6857 8.4824 85.2453 7.72588 85.2453 6.4998C85.2453 5.27372 84.6735 4.50416 83.7733 4.50416C82.8609 4.50416 82.3135 5.26068 82.3135 6.48676ZM90.7804 6.48676C90.7561 6.10678 90.8049 5.7255 90.9238 5.36659C91.0427 5.00769 91.2292 4.67883 91.4716 4.40044C91.714 4.12206 92.0073 3.90009 92.3331 3.74833C92.6589 3.59657 93.0103 3.51826 93.3655 3.51826C93.7208 3.51826 94.0722 3.59657 94.398 3.74833C94.7238 3.90009 95.017 4.12206 95.2595 4.40044C95.5019 4.67883 95.6884 5.00769 95.8073 5.36659C95.9262 5.7255 95.975 6.10678 95.9506 6.48676C95.975 6.86673 95.9262 7.24802 95.8073 7.60692C95.6884 7.96583 95.5019 8.29468 95.2595 8.57307C95.017 8.85145 94.7238 9.07342 94.398 9.22518C94.0722 9.37694 93.7208 9.45526 93.3655 9.45526C93.0103 9.45526 92.6589 9.37694 92.3331 9.22518C92.0073 9.07342 91.714 8.85145 91.4716 8.57307C91.2292 8.29468 91.0427 7.96583 90.9238 7.60692C90.8049 7.24802 90.7561 6.86673 90.7804 6.48676ZM94.8314 6.48676C94.8314 5.22155 94.2962 4.47807 93.3716 4.47807C92.4227 4.47807 91.8996 5.22155 91.8996 6.48676C91.8996 7.77806 92.4227 8.50849 93.3594 8.50849C94.2962 8.50849 94.8314 7.76501 94.8314 6.48676ZM97.3983 3.56503H98.4323V4.49111H98.5175C98.7973 3.79981 99.4542 3.38242 100.16 3.44764C100.425 3.42698 100.691 3.47051 100.939 3.57503C101.187 3.67955 101.409 3.84238 101.59 4.05149C101.771 4.2606 101.906 4.51065 101.985 4.78315C102.064 5.05566 102.084 5.34367 102.045 5.62589V9.43457H100.975V5.91285C100.975 4.97372 100.586 4.50416 99.7826 4.50416C99.6022 4.49551 99.4221 4.5288 99.2547 4.60176C99.0874 4.67473 98.9367 4.78563 98.8131 4.92686C98.6894 5.0681 98.5957 5.23633 98.5384 5.42003C98.4811 5.60372 98.4615 5.79853 98.481 5.99111V9.43457H97.3861V3.56503H97.3983ZM108.164 2.09112V3.59112H109.344V4.55633H108.164V7.5824C108.164 8.19545 108.396 8.46936 108.931 8.46936L109.344 8.44327V9.40848C109.15 9.44761 108.955 9.46066 108.761 9.46066C107.544 9.46066 107.082 9.00414 107.082 7.8824V4.55633H106.206V3.59112H107.082V2.09112H108.164ZM110.816 1.26939H111.899V4.50416H111.984C112.276 3.81286 112.945 3.38242 113.651 3.46068C113.915 3.44486 114.179 3.49169 114.425 3.59785C114.67 3.70401 114.891 3.86688 115.071 4.07487C115.251 4.28286 115.386 4.53085 115.467 4.80119C115.547 5.07153 115.571 5.35757 115.537 5.63894V9.42153H114.454V5.92589C114.454 4.98676 114.04 4.5172 113.286 4.5172C113.1 4.4992 112.912 4.5253 112.736 4.59366C112.56 4.66202 112.4 4.77097 112.268 4.91281C112.136 5.05465 112.034 5.22591 111.97 5.41449C111.907 5.60307 111.882 5.80437 111.899 6.00415V9.43457H110.816V1.26939ZM121.838 7.84327C121.69 8.37884 121.372 8.84183 120.938 9.15166C120.505 9.46149 119.984 9.59853 119.466 9.53892C119.106 9.54795 118.748 9.47323 118.417 9.3199C118.087 9.16657 117.791 8.93826 117.551 8.6507C117.31 8.36313 117.131 8.02313 117.025 7.65407C116.918 7.28502 116.888 6.89568 116.936 6.51284C116.889 6.12816 116.919 5.73715 117.025 5.36619C117.131 4.99523 117.31 4.65295 117.55 4.36243C117.789 4.07192 118.085 3.83993 118.415 3.68212C118.746 3.52432 119.104 3.44436 119.466 3.44764C120.986 3.44764 121.899 4.55633 121.899 6.4085V6.7998H118.043V6.87806C118.026 7.09369 118.051 7.31075 118.117 7.51529C118.183 7.71984 118.288 7.90735 118.425 8.06579C118.563 8.22424 118.729 8.35011 118.915 8.43533C119.1 8.52056 119.301 8.56325 119.502 8.56066C120.025 8.62588 120.536 8.33892 120.804 7.84327H121.838ZM118.043 5.95198H120.804C120.818 5.75558 120.793 5.55832 120.731 5.3727C120.67 5.18708 120.573 5.01715 120.448 4.87368C120.322 4.7302 120.17 4.61631 120.001 4.53923C119.832 4.46215 119.65 4.42356 119.466 4.4259C119.278 4.42236 119.091 4.45942 118.917 4.53486C118.743 4.61031 118.585 4.72258 118.452 4.865C118.319 5.00742 118.215 5.17707 118.144 5.36382C118.074 5.55057 118.039 5.7506 118.043 5.95198Z" fill="white"/>
<path d="M20.3687 17.039C20.393 14.5999 21.5852 12.3564 23.5195 11.0782C22.9135 10.1515 22.114 9.38942 21.1846 8.85272C20.2553 8.31602 19.2219 8.01952 18.1668 7.98688C15.9284 7.72601 13.7508 9.42165 12.6073 9.42165C11.4395 9.42165 9.67552 8.01296 7.77776 8.05209C6.54996 8.095 5.35344 8.47793 4.3046 9.16364C3.25576 9.84935 2.39032 10.8145 1.7925 11.9651C-0.798675 16.7781 1.13558 23.8346 3.61727 27.7216C4.85812 29.6129 6.29361 31.7389 8.20354 31.6607C10.0526 31.5824 10.7582 30.3955 12.9844 30.3955C15.2107 30.3955 15.8554 31.6607 17.7897 31.6215C19.7848 31.5824 21.0378 29.7042 22.2421 27.7868C23.1302 26.4303 23.8236 24.9303 24.2737 23.352C23.1166 22.827 22.1293 21.9484 21.4349 20.8258C20.7405 19.7031 20.3697 18.3861 20.3687 17.039ZM16.707 5.43037C17.7948 4.03327 18.3316 2.23643 18.2033 0.421696C16.5367 0.617347 15.0039 1.46517 13.909 2.80864C13.3701 3.46549 12.9573 4.22985 12.6943 5.05798C12.4312 5.88611 12.3232 6.76173 12.3762 7.6347C13.2067 7.64361 14.0283 7.44977 14.7786 7.06786C15.5289 6.68595 16.1884 6.12598 16.707 5.43037Z" fill="white"/>
<path d="M45.8549 25.6608H40.1008L38.7139 30.0434H36.2809L41.7309 13.8435H44.2734L49.7234 30.0434H47.2417L45.8549 25.6608ZM40.6969 23.6391H45.2588L43.0082 16.5304H42.9474L40.6969 23.6391ZM61.4993 24.1347C61.4993 27.7999 59.6745 30.1608 56.9008 30.1608C56.2008 30.2008 55.5044 30.0287 54.8912 29.6643C54.2781 29.2998 53.773 28.7577 53.4338 28.0999H53.3851V33.9434H51.1224V18.2261H53.3121V20.1826H53.3486C53.7032 19.5257 54.2176 18.9846 54.8369 18.617C55.4561 18.2494 56.1569 18.0692 56.8643 18.0956C59.6623 18.0956 61.4993 20.4695 61.4993 24.1347ZM59.1757 24.1347C59.1757 21.7478 58.02 20.1695 56.2561 20.1695C54.5408 20.1695 53.3729 21.7739 53.3729 24.1347C53.3729 26.5086 54.5408 28.113 56.2683 28.113C58.02 28.113 59.1757 26.5478 59.1757 24.1347ZM73.6158 24.1347C73.6158 27.7999 71.791 30.1608 69.0295 30.1608C68.3294 30.2008 67.633 30.0287 67.0199 29.6643C66.4068 29.2998 65.9017 28.7577 65.5624 28.0999H65.5016V33.9434H63.251V18.2261H65.4408V20.1826H65.4773C65.8309 19.5277 66.3434 18.9879 66.9603 18.6204C67.5772 18.2529 68.2755 18.0716 68.9808 18.0956C71.7788 18.0956 73.6158 20.4695 73.6158 24.1347ZM71.3044 24.1347C71.3044 21.7478 70.1487 20.1695 68.3847 20.1695C66.6573 20.1695 65.5016 21.7739 65.5016 24.1347C65.5016 26.5086 66.6573 28.113 68.3847 28.113C70.1487 28.113 71.3044 26.5478 71.3044 24.1347ZM81.6326 25.5304C81.8029 27.1347 83.2506 28.1912 85.2456 28.1912C87.1556 28.1912 88.5302 27.1347 88.5302 25.6869C88.5302 24.4217 87.6908 23.6782 85.7322 23.1565L83.7858 22.6478C81 21.9304 79.7227 20.5478 79.7227 18.2913C79.7227 15.4869 81.9854 13.5696 85.2091 13.5696C88.4086 13.5696 90.5983 15.4869 90.6713 18.2913H88.3842C88.2504 16.6739 86.9974 15.6826 85.1848 15.6826C83.36 15.6826 82.1192 16.6739 82.1192 18.1217C82.1192 19.2565 82.9099 19.9478 84.8563 20.4565L86.523 20.8869C89.6251 21.6695 90.9024 23.013 90.9024 25.3739C90.9024 28.413 88.6519 30.3043 85.0753 30.3043C81.7299 30.3043 79.4672 28.4521 79.3212 25.5304H81.6326ZM95.7928 15.4348V18.2261H97.8852V20.1434H95.7928V26.6652C95.7928 27.6695 96.2064 28.1391 97.131 28.1391C97.3743 28.1391 97.6176 28.113 97.8609 28.0869V29.9912C97.4594 30.0825 97.0337 30.1217 96.62 30.1086C94.3817 30.1086 93.5179 29.1956 93.5179 26.913V20.1434H91.9121V18.2261H93.5179V15.4348H95.7928ZM99.0896 24.1347C99.0896 20.4174 101.133 18.0826 104.321 18.0826C107.508 18.0826 109.552 20.4304 109.552 24.1347C109.552 27.8651 107.52 30.1869 104.321 30.1869C101.121 30.1869 99.0896 27.8651 99.0896 24.1347ZM107.24 24.1347C107.24 21.5913 106.145 20.0913 104.321 20.0913C102.496 20.0913 101.401 21.5913 101.401 24.1347C101.401 26.6912 102.496 28.1782 104.321 28.1782C106.145 28.1782 107.24 26.6912 107.24 24.1347ZM111.413 18.2261H113.566V20.2347H113.615C113.919 18.9434 115.026 18.0565 116.267 18.1087C116.522 18.1087 116.79 18.1348 117.045 18.2V20.4695C116.715 20.3577 116.37 20.3048 116.023 20.313C115.694 20.2973 115.365 20.3586 115.059 20.4929C114.754 20.6271 114.479 20.831 114.255 21.0903C114.03 21.3497 113.861 21.6584 113.759 21.9949C113.657 22.3314 113.624 22.6877 113.663 23.0391V30.0434H111.413V18.2261ZM127.459 26.5738C127.155 28.713 125.208 30.1869 122.714 30.1869C119.515 30.1869 117.532 27.8782 117.532 24.1869C117.532 20.4826 119.527 18.0826 122.629 18.0826C125.67 18.0826 127.593 20.3261 127.593 23.913V24.7347H119.807V24.8912C119.772 25.3258 119.824 25.7633 119.959 26.1748C120.094 26.5863 120.308 26.9624 120.589 27.2781C120.87 27.5938 121.21 27.842 121.587 28.0061C121.964 28.1703 122.369 28.2467 122.775 28.2304C123.87 28.3347 124.904 27.6695 125.318 26.5738H127.459ZM119.819 23.0521H125.33C125.35 22.6613 125.295 22.2703 125.167 21.9034C125.04 21.5366 124.843 21.2019 124.59 20.9203C124.336 20.6387 124.031 20.4162 123.694 20.2668C123.357 20.1175 122.994 20.0444 122.629 20.0521C121.887 20.0521 121.175 20.3682 120.651 20.9308C120.126 21.4934 119.831 22.2565 119.831 23.0521H119.819Z" fill="white"/>
</svg>
