<svg width="50" height="50" viewBox="0 0 50 50" fill="none" xmlns="http://www.w3.org/2000/svg">
<path d="M32.07 32.07C30.1947 33.9447 27.6516 34.9979 25 34.9979C22.3484 34.9979 19.8053 33.9447 17.93 32.07H32.07ZM17.5 20H17.525H17.5ZM32.5 20H32.525H32.5ZM47.5 25C47.5 27.9547 46.918 30.8806 45.7873 33.6104C44.6566 36.3402 42.9992 38.8206 40.9099 40.9099C38.8206 42.9992 36.3402 44.6566 33.6104 45.7873C30.8806 46.918 27.9547 47.5 25 47.5C22.0453 47.5 19.1194 46.918 16.3896 45.7873C13.6598 44.6566 11.1794 42.9992 9.0901 40.9099C7.00078 38.8206 5.34344 36.3402 4.21271 33.6104C3.08198 30.8806 2.5 27.9547 2.5 25C2.5 19.0326 4.87053 13.3097 9.0901 9.0901C13.3097 4.87053 19.0326 2.5 25 2.5C30.9674 2.5 36.6903 4.87053 40.9099 9.0901C45.1295 13.3097 47.5 19.0326 47.5 25Z" stroke="#0F9AFE" stroke-width="4" stroke-linecap="round" stroke-linejoin="round"/>
</svg>
