<svg width="100" height="30" viewBox="0 0 100 30" fill="none" xmlns="http://www.w3.org/2000/svg">
<path d="M32.16 23V5.36H38.664C40.76 5.36 42.432 5.832 43.68 6.776C44.928 7.72 45.552 9.152 45.552 11.072V11.48C45.552 12.792 45.248 13.872 44.64 14.72C44.048 15.568 43.224 16.192 42.168 16.592L46.848 23H42.864L38.736 17.144H38.664H35.568V23H32.16ZM39.024 8.264H35.568V14.384H39.024C39.952 14.384 40.696 14.104 41.256 13.544C41.816 12.984 42.096 12.248 42.096 11.336C42.096 10.424 41.816 9.688 41.256 9.128C40.696 8.552 39.952 8.264 39.024 8.264ZM52.8654 23.336C51.4254 23.336 50.2734 22.968 49.4094 22.232C48.5614 21.496 48.1374 20.464 48.1374 19.136C48.1374 17.712 48.6494 16.664 49.6734 15.992C50.7134 15.304 52.1054 14.96 53.8494 14.96H56.5134V14.84C56.5134 13.352 55.7614 12.608 54.2574 12.608C53.8574 12.608 53.3774 12.616 52.8174 12.632C52.2574 12.648 51.6894 12.672 51.1134 12.704C50.5534 12.72 50.0494 12.744 49.6014 12.776V9.944C50.1454 9.896 50.7934 9.856 51.5454 9.824C52.3134 9.792 53.0174 9.776 53.6574 9.776C55.6574 9.776 57.1614 10.184 58.1694 11C59.1934 11.8 59.7054 13.104 59.7054 14.912V23H57.0654V20.504C56.4734 22.392 55.0734 23.336 52.8654 23.336ZM53.8014 20.96C54.2494 20.96 54.6734 20.88 55.0734 20.72C55.4734 20.544 55.8014 20.256 56.0574 19.856C56.3294 19.44 56.4814 18.88 56.5134 18.176V16.952H53.8014C53.0334 16.952 52.4414 17.144 52.0254 17.528C51.6254 17.896 51.4254 18.376 51.4254 18.968C51.4254 19.576 51.6254 20.064 52.0254 20.432C52.4414 20.784 53.0334 20.96 53.8014 20.96ZM69.0628 23.456C67.9268 23.456 66.9428 23.264 66.1108 22.88C65.2788 22.496 64.5908 21.984 64.0468 21.344C63.5028 20.704 63.0948 19.984 62.8228 19.184C62.5508 18.384 62.4148 17.568 62.4148 16.736V16.28C62.4148 15.416 62.5508 14.584 62.8228 13.784C63.1108 12.968 63.5268 12.24 64.0708 11.6C64.6308 10.96 65.3188 10.456 66.1348 10.088C66.9668 9.704 67.9348 9.512 69.0388 9.512C70.1748 9.512 71.1828 9.736 72.0628 10.184C72.9588 10.616 73.6708 11.224 74.1988 12.008C74.7428 12.792 75.0548 13.704 75.1348 14.744H71.8948C71.7988 14.072 71.5108 13.512 71.0308 13.064C70.5508 12.616 69.8868 12.392 69.0388 12.392C67.9188 12.392 67.0868 12.776 66.5428 13.544C66.0148 14.312 65.7508 15.296 65.7508 16.496C65.7508 17.664 66.0068 18.64 66.5188 19.424C67.0468 20.192 67.8948 20.576 69.0628 20.576C69.9268 20.576 70.6068 20.352 71.1028 19.904C71.6148 19.456 71.9188 18.872 72.0148 18.152H75.2548C75.1908 19.208 74.8788 20.136 74.3188 20.936C73.7748 21.736 73.0468 22.36 72.1348 22.808C71.2228 23.24 70.1988 23.456 69.0628 23.456ZM77.9273 23V5.48H81.2633V12.152C81.5993 11.32 82.0953 10.68 82.7513 10.232C83.4073 9.784 84.2313 9.56 85.2233 9.56H85.3673C86.8553 9.56 87.9833 10.08 88.7513 11.12C89.5193 12.144 89.9033 13.624 89.9033 15.56V23H86.5673V15.248C86.5673 14.416 86.3273 13.76 85.8473 13.28C85.3833 12.8 84.7673 12.56 83.9993 12.56C83.1673 12.56 82.5033 12.832 82.0073 13.376C81.5113 13.904 81.2633 14.6 81.2633 15.464V23H77.9273ZM95.3378 8.408C94.6818 8.408 94.1938 8.24 93.8738 7.904C93.5698 7.552 93.4178 7.112 93.4178 6.584C93.4178 6.056 93.5698 5.624 93.8738 5.288C94.1938 4.952 94.6818 4.784 95.3378 4.784C95.9778 4.784 96.4498 4.952 96.7538 5.288C97.0738 5.624 97.2338 6.056 97.2338 6.584C97.2338 7.112 97.0738 7.552 96.7538 7.904C96.4498 8.24 95.9778 8.408 95.3378 8.408ZM94.1138 23V12.464H92.2898V9.968H97.4498V23H94.1138Z" fill="#293145"/>
<circle cx="6" cy="12" r="6" fill="#0F9AFE"/>
<circle cx="12" cy="18" r="6" fill="#293145"/>
</svg>
